<svg width="1200" height="800" xmlns="http://www.w3.org/2000/svg">
  <!-- 页面背景 -->
  <rect width="1200" height="800" fill="#f5f5f5"/>
  
  <!-- 顶部导航栏 -->
  <rect x="0" y="0" width="1200" height="60" fill="#1890ff"/>
  <text x="60" y="35" font-family="Arial, sans-serif" font-size="18" fill="white" font-weight="bold">铁路订票系统</text>
  <text x="1000" y="35" font-family="Arial, sans-serif" font-size="14" fill="white">用户中心</text>
  <text x="1100" y="35" font-family="Arial, sans-serif" font-size="14" fill="white">退出</text>
  
  <!-- 搜索区域 -->
  <rect x="50" y="80" width="1100" height="120" fill="white" stroke="#e8e8e8" stroke-width="1" rx="8"/>
  <text x="70" y="110" font-family="Arial, sans-serif" font-size="16" font-weight="bold">车票查询</text>
  
  <!-- 出发地 -->
  <text x="70" y="140" font-family="Arial, sans-serif" font-size="14">出发地</text>
  <rect x="70" y="145" width="150" height="35" fill="#fafafa" stroke="#d9d9d9" stroke-width="1" rx="4"/>
  <text x="80" y="165" font-family="Arial, sans-serif" font-size="14" fill="#666">北京</text>
  
  <!-- 目的地 -->
  <text x="250" y="140" font-family="Arial, sans-serif" font-size="14">目的地</text>
  <rect x="250" y="145" width="150" height="35" fill="#fafafa" stroke="#d9d9d9" stroke-width="1" rx="4"/>
  <text x="260" y="165" font-family="Arial, sans-serif" font-size="14" fill="#666">上海</text>
  
  <!-- 出发日期 -->
  <text x="430" y="140" font-family="Arial, sans-serif" font-size="14">出发日期</text>
  <rect x="430" y="145" width="120" height="35" fill="#fafafa" stroke="#d9d9d9" stroke-width="1" rx="4"/>
  <text x="440" y="165" font-family="Arial, sans-serif" font-size="14" fill="#666">2024-01-15</text>
  
  <!-- 返程日期 -->
  <text x="580" y="140" font-family="Arial, sans-serif" font-size="14">返程日期</text>
  <rect x="580" y="145" width="120" height="35" fill="#fafafa" stroke="#d9d9d9" stroke-width="1" rx="4"/>
  <text x="590" y="165" font-family="Arial, sans-serif" font-size="14" fill="#999">选择日期</text>
  
  <!-- 乘客类型 -->
  <text x="730" y="140" font-family="Arial, sans-serif" font-size="14">乘客类型</text>
  <rect x="730" y="145" width="100" height="35" fill="#fafafa" stroke="#d9d9d9" stroke-width="1" rx="4"/>
  <text x="740" y="165" font-family="Arial, sans-serif" font-size="14" fill="#666">成人</text>
  
  <!-- 查询按钮 -->
  <rect x="860" y="145" width="80" height="35" fill="#1890ff" rx="4"/>
  <text x="890" y="165" font-family="Arial, sans-serif" font-size="14" fill="white" font-weight="bold">查询</text>
  
  <!-- 筛选区域 -->
  <rect x="50" y="220" width="1100" height="50" fill="white" stroke="#e8e8e8" stroke-width="1" rx="8"/>
  <text x="70" y="245" font-family="Arial, sans-serif" font-size="14" font-weight="bold">筛选条件：</text>
  
  <!-- 车次类型筛选 -->
  <rect x="150" y="235" width="60" height="25" fill="#f0f0f0" stroke="#d9d9d9" stroke-width="1" rx="12"/>
  <text x="170" y="250" font-family="Arial, sans-serif" font-size="12">高铁</text>
  
  <rect x="220" y="235" width="60" height="25" fill="#1890ff" stroke="#1890ff" stroke-width="1" rx="12"/>
  <text x="240" y="250" font-family="Arial, sans-serif" font-size="12" fill="white">动车</text>
  
  <rect x="290" y="235" width="60" height="25" fill="#f0f0f0" stroke="#d9d9d9" stroke-width="1" rx="12"/>
  <text x="310" y="250" font-family="Arial, sans-serif" font-size="12">普快</text>
  
  <!-- 座位类型筛选 -->
  <text x="400" y="250" font-family="Arial, sans-serif" font-size="14">座位类型：</text>
  <rect x="480" y="235" width="70" height="25" fill="#f0f0f0" stroke="#d9d9d9" stroke-width="1" rx="12"/>
  <text x="505" y="250" font-family="Arial, sans-serif" font-size="12">商务座</text>
  
  <rect x="560" y="235" width="70" height="25" fill="#f0f0f0" stroke="#d9d9d9" stroke-width="1" rx="12"/>
  <text x="585" y="250" font-family="Arial, sans-serif" font-size="12">一等座</text>
  
  <rect x="640" y="235" width="70" height="25" fill="#1890ff" stroke="#1890ff" stroke-width="1" rx="12"/>
  <text x="665" y="250" font-family="Arial, sans-serif" font-size="12" fill="white">二等座</text>
  
  <!-- 车票列表标题 -->
  <rect x="50" y="290" width="1100" height="40" fill="#fafafa" stroke="#e8e8e8" stroke-width="1"/>
  <text x="70" y="315" font-family="Arial, sans-serif" font-size="14" font-weight="bold">车次</text>
  <text x="200" y="315" font-family="Arial, sans-serif" font-size="14" font-weight="bold">出发时间</text>
  <text x="300" y="315" font-family="Arial, sans-serif" font-size="14" font-weight="bold">到达时间</text>
  <text x="400" y="315" font-family="Arial, sans-serif" font-size="14" font-weight="bold">历时</text>
  <text x="500" y="315" font-family="Arial, sans-serif" font-size="14" font-weight="bold">商务座</text>
  <text x="600" y="315" font-family="Arial, sans-serif" font-size="14" font-weight="bold">一等座</text>
  <text x="700" y="315" font-family="Arial, sans-serif" font-size="14" font-weight="bold">二等座</text>
  <text x="800" y="315" font-family="Arial, sans-serif" font-size="14" font-weight="bold">硬卧</text>
  <text x="900" y="315" font-family="Arial, sans-serif" font-size="14" font-weight="bold">软卧</text>
  <text x="1000" y="315" font-family="Arial, sans-serif" font-size="14" font-weight="bold">操作</text>
  
  <!-- 车票列表项1 -->
  <rect x="50" y="330" width="1100" height="80" fill="white" stroke="#e8e8e8" stroke-width="1"/>
  <text x="70" y="355" font-family="Arial, sans-serif" font-size="16" font-weight="bold" fill="#1890ff">G101</text>
  <text x="70" y="375" font-family="Arial, sans-serif" font-size="12" fill="#666">高速动车</text>
  
  <text x="200" y="355" font-family="Arial, sans-serif" font-size="16" font-weight="bold">08:00</text>
  <text x="200" y="375" font-family="Arial, sans-serif" font-size="12" fill="#666">北京南</text>
  
  <text x="300" y="355" font-family="Arial, sans-serif" font-size="16" font-weight="bold">12:30</text>
  <text x="300" y="375" font-family="Arial, sans-serif" font-size="12" fill="#666">上海虹桥</text>
  
  <text x="400" y="365" font-family="Arial, sans-serif" font-size="14">4小时30分</text>
  
  <text x="500" y="355" font-family="Arial, sans-serif" font-size="14" font-weight="bold" fill="#ff4d4f">¥933</text>
  <text x="500" y="375" font-family="Arial, sans-serif" font-size="12" fill="#52c41a">有票</text>
  
  <text x="600" y="355" font-family="Arial, sans-serif" font-size="14" font-weight="bold" fill="#ff4d4f">¥553</text>
  <text x="600" y="375" font-family="Arial, sans-serif" font-size="12" fill="#52c41a">有票</text>
  
  <text x="700" y="355" font-family="Arial, sans-serif" font-size="14" font-weight="bold" fill="#ff4d4f">¥348</text>
  <text x="700" y="375" font-family="Arial, sans-serif" font-size="12" fill="#faad14">余票紧张</text>
  
  <text x="800" y="365" font-family="Arial, sans-serif" font-size="12" fill="#999">--</text>
  <text x="900" y="365" font-family="Arial, sans-serif" font-size="12" fill="#999">--</text>
  
  <rect x="1000" y="345" width="60" height="30" fill="#1890ff" rx="4"/>
  <text x="1020" y="363" font-family="Arial, sans-serif" font-size="12" fill="white">预订</text>
  
  <!-- 车票列表项2 -->
  <rect x="50" y="410" width="1100" height="80" fill="white" stroke="#e8e8e8" stroke-width="1"/>
  <text x="70" y="435" font-family="Arial, sans-serif" font-size="16" font-weight="bold" fill="#1890ff">G103</text>
  <text x="70" y="455" font-family="Arial, sans-serif" font-size="12" fill="#666">高速动车</text>
  
  <text x="200" y="435" font-family="Arial, sans-serif" font-size="16" font-weight="bold">09:15</text>
  <text x="200" y="455" font-family="Arial, sans-serif" font-size="12" fill="#666">北京南</text>
  
  <text x="300" y="435" font-family="Arial, sans-serif" font-size="16" font-weight="bold">13:45</text>
  <text x="300" y="455" font-family="Arial, sans-serif" font-size="12" fill="#666">上海虹桥</text>
  
  <text x="400" y="445" font-family="Arial, sans-serif" font-size="14">4小时30分</text>
  
  <text x="500" y="435" font-family="Arial, sans-serif" font-size="14" font-weight="bold" fill="#ff4d4f">¥933</text>
  <text x="500" y="455" font-family="Arial, sans-serif" font-size="12" fill="#52c41a">有票</text>
  
  <text x="600" y="435" font-family="Arial, sans-serif" font-size="14" font-weight="bold" fill="#ff4d4f">¥553</text>
  <text x="600" y="455" font-family="Arial, sans-serif" font-size="12" fill="#ff4d4f">无票</text>
  
  <text x="700" y="435" font-family="Arial, sans-serif" font-size="14" font-weight="bold" fill="#ff4d4f">¥348</text>
  <text x="700" y="455" font-family="Arial, sans-serif" font-size="12" fill="#52c41a">有票</text>
  
  <text x="800" y="445" font-family="Arial, sans-serif" font-size="12" fill="#999">--</text>
  <text x="900" y="445" font-family="Arial, sans-serif" font-size="12" fill="#999">--</text>
  
  <rect x="1000" y="425" width="60" height="30" fill="#1890ff" rx="4"/>
  <text x="1020" y="443" font-family="Arial, sans-serif" font-size="12" fill="white">预订</text>
  
  <!-- 车票列表项3 -->
  <rect x="50" y="490" width="1100" height="80" fill="white" stroke="#e8e8e8" stroke-width="1"/>
  <text x="70" y="515" font-family="Arial, sans-serif" font-size="16" font-weight="bold" fill="#1890ff">D311</text>
  <text x="70" y="535" font-family="Arial, sans-serif" font-size="12" fill="#666">动车组</text>
  
  <text x="200" y="515" font-family="Arial, sans-serif" font-size="16" font-weight="bold">10:30</text>
  <text x="200" y="535" font-family="Arial, sans-serif" font-size="12" fill="#666">北京南</text>
  
  <text x="300" y="515" font-family="Arial, sans-serif" font-size="16" font-weight="bold">16:15</text>
  <text x="300" y="535" font-family="Arial, sans-serif" font-size="12" fill="#666">上海虹桥</text>
  
  <text x="400" y="525" font-family="Arial, sans-serif" font-size="14">5小时45分</text>
  
  <text x="500" y="525" font-family="Arial, sans-serif" font-size="12" fill="#999">--</text>
  
  <text x="600" y="515" font-family="Arial, sans-serif" font-size="14" font-weight="bold" fill="#ff4d4f">¥383</text>
  <text x="600" y="535" font-family="Arial, sans-serif" font-size="12" fill="#52c41a">有票</text>
  
  <text x="700" y="515" font-family="Arial, sans-serif" font-size="14" font-weight="bold" fill="#ff4d4f">¥243</text>
  <text x="700" y="535" font-family="Arial, sans-serif" font-size="12" fill="#52c41a">有票</text>
  
  <text x="800" y="515" font-family="Arial, sans-serif" font-size="14" font-weight="bold" fill="#ff4d4f">¥178</text>
  <text x="800" y="535" font-family="Arial, sans-serif" font-size="12" fill="#52c41a">有票</text>
  
  <text x="900" y="515" font-family="Arial, sans-serif" font-size="14" font-weight="bold" fill="#ff4d4f">¥268</text>
  <text x="900" y="535" font-family="Arial, sans-serif" font-size="12" fill="#52c41a">有票</text>
  
  <rect x="1000" y="505" width="60" height="30" fill="#1890ff" rx="4"/>
  <text x="1020" y="523" font-family="Arial, sans-serif" font-size="12" fill="white">预订</text>
  
  <!-- 分页 -->
  <rect x="50" y="590" width="1100" height="50" fill="white" stroke="#e8e8e8" stroke-width="1" rx="8"/>
  <text x="70" y="620" font-family="Arial, sans-serif" font-size="14">共找到 156 趟列车</text>
  
  <!-- 分页控件 -->
  <rect x="900" y="605" width="30" height="25" fill="#f0f0f0" stroke="#d9d9d9" stroke-width="1" rx="4"/>
  <text x="912" y="620" font-family="Arial, sans-serif" font-size="12">上一页</text>
  
  <rect x="940" y="605" width="25" height="25" fill="#1890ff" stroke="#1890ff" stroke-width="1" rx="4"/>
  <text x="950" y="620" font-family="Arial, sans-serif" font-size="12" fill="white">1</text>
  
  <rect x="975" y="605" width="25" height="25" fill="#f0f0f0" stroke="#d9d9d9" stroke-width="1" rx="4"/>
  <text x="985" y="620" font-family="Arial, sans-serif" font-size="12">2</text>
  
  <rect x="1010" y="605" width="25" height="25" fill="#f0f0f0" stroke="#d9d9d9" stroke-width="1" rx="4"/>
  <text x="1020" y="620" font-family="Arial, sans-serif" font-size="12">3</text>
  
  <rect x="1045" y="605" width="30" height="25" fill="#f0f0f0" stroke="#d9d9d9" stroke-width="1" rx="4"/>
  <text x="1057" y="620" font-family="Arial, sans-serif" font-size="12">下一页</text>
  
  <!-- 底部信息 -->
  <rect x="0" y="660" width="1200" height="140" fill="#001529"/>
  <text x="60" y="690" font-family="Arial, sans-serif" font-size="14" fill="white" font-weight="bold">铁路订票系统</text>
  <text x="60" y="715" font-family="Arial, sans-serif" font-size="12" fill="#999">为您提供便捷的火车票预订服务</text>
  
  <text x="300" y="690" font-family="Arial, sans-serif" font-size="14" fill="white">客服热线</text>
  <text x="300" y="715" font-family="Arial, sans-serif" font-size="12" fill="#999">400-123-4567</text>
  
  <text x="500" y="690" font-family="Arial, sans-serif" font-size="14" fill="white">服务时间</text>
  <text x="500" y="715" font-family="Arial, sans-serif" font-size="12" fill="#999">7:00-23:00</text>
  
  <text x="700" y="690" font-family="Arial, sans-serif" font-size="14" fill="white">关于我们</text>
  <text x="700" y="715" font-family="Arial, sans-serif" font-size="12" fill="#999">联系我们 | 帮助中心</text>
</svg>